<svg xmlns="http://www.w3.org/2000/svg" width="220" height="292" fill="none" viewBox="0 0 220 292"><circle cx="29" cy="29" r="26" stroke="#000" stroke-width="6"/><circle cx="191" cy="29" r="26" stroke="#000" stroke-width="6"/><circle cx="29" cy="263" r="26" stroke="#000" stroke-width="6"/><circle cx="191" cy="263" r="26" stroke="#000" stroke-width="6"/><path stroke="#000" stroke-width="13" d="M152.178 116.479L156.25 143.687C158.032 155.587 155.986 167.746 150.41 178.409L142.806 192.946C137.685 202.738 127.55 208.875 116.5 208.875C105.45 208.875 95.3149 202.738 90.1938 192.946L82.5904 178.409C77.0135 167.746 74.9683 155.587 76.7497 143.687L80.8224 116.479C82.2452 106.975 87.4019 98.4303 95.1486 92.7421C107.854 83.4126 125.146 83.4126 137.851 92.7421C145.598 98.4303 150.755 106.975 152.178 116.479Z"/><line x1="86.367" x2="22.783" y1="97.982" y2="35.209" stroke="#000" stroke-width="17"/><line x1="133.916" x2="184.54" y1="86.598" y2="23.824" stroke="#000" stroke-width="17"/><line x1="91.016" x2="35.532" y1="195.072" y2="268.376" stroke="#000" stroke-width="17"/><line x1="152.459" x2="198.223" y1="190.077" y2="258.521" stroke="#000" stroke-width="17"/><ellipse cx="28.879" cy="29.096" fill="#000" rx="22.323" ry="4.904" transform="rotate(-37 28.8792 29.0958)"/><ellipse cx="194.926" cy="263.182" fill="#000" rx="22.323" ry="4.904" transform="rotate(-37 194.926 263.182)"/><ellipse cx="27.77" cy="263.427" fill="#000" rx="22.323" ry="4.904" transform="rotate(-137 27.7705 263.427)"/><ellipse cx="187.743" cy="27.721" fill="#000" rx="22.323" ry="4.904" transform="rotate(-137 187.743 27.7208)"/><g clip-path="url(#clip0)"><path fill="#FFA055" d="M151.759 153H82.2414C81.4416 153 80.7931 152.352 80.7931 151.552V148.655C80.7931 147.856 81.4416 147.207 82.2414 147.207H151.759C152.558 147.207 153.207 147.856 153.207 148.655V151.552C153.207 152.352 152.558 153 151.759 153Z"/><path fill="#FFB45A" d="M119.182 69H114.818C113.535 69 112.405 69.8438 112.041 71.0738L89.4828 147.207H144.517L121.959 71.0738C121.595 69.8438 120.465 69 119.182 69Z"/><path fill="#FFEBBE" d="M103.215 100.862H130.785L127.353 89.2759H106.648L103.215 100.862Z"/><path fill="#FFEBBE" d="M94.6321 129.828H139.368L135.935 118.242H98.0651L94.6321 129.828Z"/><path fill="#FFA055" d="M110.939 74.793H123.061L122.203 71.8965H111.797L110.939 74.793Z"/><path fill="#FFA055" d="M109.222 80.586H124.778L123.919 77.6895H110.081L109.222 80.586Z"/></g><defs><clipPath id="clip0"><rect width="84" height="84" fill="#fff" transform="translate(75 69)"/></clipPath></defs></svg>